<svg width="30" height="23" viewBox="0 0 30 23" fill="none" xmlns="http://www.w3.org/2000/svg">
<path d="M9.27099 20.6609C6.72039 23.184 2.40064 23.1739 1.19425 19.8112C0.958057 19.1529 0.769211 18.4759 0.630316 17.7852C0.0632085 14.9648 0.354269 12.0416 1.46669 9.38489C2.57911 6.72828 4.46293 4.45761 6.87993 2.86005C9.29696 1.26249 12.1386 0.40979 15.0455 0.40979C17.9524 0.40979 20.794 1.26249 23.2109 2.86005C25.628 4.45761 27.5118 6.72828 28.6242 9.38497C29.7366 12.0416 30.0276 14.9648 29.4606 17.7852C29.3217 18.4759 29.1328 19.1529 28.8966 19.8112C27.6902 23.1739 23.3705 23.184 20.8199 20.6609L16.8826 16.7661C16.5065 16.394 16.5453 15.7804 16.6491 15.2643C16.7121 14.9506 16.6798 14.6253 16.556 14.3298C16.4322 14.0342 16.2227 13.7816 15.9538 13.6039C15.685 13.4262 15.3688 13.3313 15.0455 13.3313C14.7221 13.3313 14.406 13.4262 14.1371 13.6039C13.8681 13.7816 13.6586 14.0342 13.5348 14.3298C13.4111 14.6253 13.3787 14.9506 13.4418 15.2643C13.5456 15.7804 13.5844 16.394 13.2082 16.7661L9.27099 20.6609Z" fill="url(#paint0_linear_207_862)"/>
<defs>
<linearGradient id="paint0_linear_207_862" x1="28.4051" y1="7.67928" x2="2.317" y2="7.67928" gradientUnits="userSpaceOnUse">
<stop stop-color="#161490"/>
<stop offset="0.510417" stop-color="#7476ED"/>
<stop offset="1" stop-color="#E56F8C"/>
</linearGradient>
</defs>
</svg>
