<svg width="230" height="83" viewBox="0 0 230 83" fill="none" xmlns="http://www.w3.org/2000/svg">
<path d="M37.2574 4.24264C39.6005 1.8995 43.3995 1.8995 45.7426 4.24264L78.7574 37.2574C81.1005 39.6005 81.1005 43.3995 78.7574 45.7426L45.7426 78.7574C43.3995 81.1005 39.6005 81.1005 37.2574 78.7574L4.24264 45.7426C1.8995 43.3995 1.8995 39.6005 4.24264 37.2574L37.2574 4.24264Z" fill="#F48C06"/>
<path d="M40.968 48.032H32.584L31.24 52H25.512L33.64 29.536H39.976L48.104 52H42.312L40.968 48.032ZM39.56 43.808L36.776 35.584L34.024 43.808H39.56ZM54.6098 32.288C53.6498 32.288 52.8604 32.0107 52.2418 31.456C51.6444 30.88 51.3458 30.176 51.3458 29.344C51.3458 28.4907 51.6444 27.7867 52.2418 27.232C52.8604 26.656 53.6498 26.368 54.6098 26.368C55.5484 26.368 56.3164 26.656 56.9138 27.232C57.5324 27.7867 57.8418 28.4907 57.8418 29.344C57.8418 30.176 57.5324 30.88 56.9138 31.456C56.3164 32.0107 55.5484 32.288 54.6098 32.288ZM57.3298 34.144V52H51.8578V34.144H57.3298Z" fill="white"/>
<path d="M94.887 52.224C93.2443 52.224 91.7723 51.9573 90.471 51.424C89.1697 50.8907 88.1243 50.1013 87.335 49.056C86.567 48.0107 86.1617 46.752 86.119 45.28H91.943C92.0283 46.112 92.3163 46.752 92.807 47.2C93.2977 47.6267 93.9377 47.84 94.727 47.84C95.5377 47.84 96.1777 47.6587 96.647 47.296C97.1163 46.912 97.351 46.3893 97.351 45.728C97.351 45.1733 97.159 44.7147 96.775 44.352C96.4123 43.9893 95.9537 43.6907 95.399 43.456C94.8657 43.2213 94.0977 42.9547 93.095 42.656C91.6443 42.208 90.4603 41.76 89.543 41.312C88.6257 40.864 87.8363 40.2027 87.175 39.328C86.5137 38.4533 86.183 37.312 86.183 35.904C86.183 33.8133 86.9403 32.1813 88.455 31.008C89.9697 29.8133 91.943 29.216 94.375 29.216C96.8497 29.216 98.8443 29.8133 100.359 31.008C101.874 32.1813 102.684 33.824 102.791 35.936H96.871C96.8283 35.2107 96.5617 34.6453 96.071 34.24C95.5803 33.8133 94.951 33.6 94.183 33.6C93.5217 33.6 92.9883 33.7813 92.583 34.144C92.1777 34.4853 91.975 34.9867 91.975 35.648C91.975 36.3733 92.3163 36.9387 92.999 37.344C93.6817 37.7493 94.7483 38.1867 96.199 38.656C97.6497 39.1467 98.823 39.616 99.719 40.064C100.636 40.512 101.426 41.1627 102.087 42.016C102.748 42.8693 103.079 43.968 103.079 45.312C103.079 46.592 102.748 47.7547 102.087 48.8C101.447 49.8453 100.508 50.6773 99.271 51.296C98.0337 51.9147 96.5723 52.224 94.887 52.224ZM115.855 52.256C114.105 52.256 112.527 51.8827 111.119 51.136C109.732 50.3893 108.633 49.3227 107.823 47.936C107.033 46.5493 106.639 44.928 106.639 43.072C106.639 41.2373 107.044 39.6267 107.855 38.24C108.665 36.832 109.775 35.7547 111.183 35.008C112.591 34.2613 114.169 33.888 115.919 33.888C117.668 33.888 119.247 34.2613 120.655 35.008C122.063 35.7547 123.172 36.832 123.983 38.24C124.793 39.6267 125.199 41.2373 125.199 43.072C125.199 44.9067 124.783 46.528 123.951 47.936C123.14 49.3227 122.02 50.3893 120.591 51.136C119.183 51.8827 117.604 52.256 115.855 52.256ZM115.855 47.52C116.9 47.52 117.785 47.136 118.511 46.368C119.257 45.6 119.631 44.5013 119.631 43.072C119.631 41.6427 119.268 40.544 118.543 39.776C117.839 39.008 116.964 38.624 115.919 38.624C114.852 38.624 113.967 39.008 113.263 39.776C112.559 40.5227 112.207 41.6213 112.207 43.072C112.207 44.5013 112.548 45.6 113.231 46.368C113.935 47.136 114.809 47.52 115.855 47.52ZM134.853 28.32V52H129.381V28.32H134.853ZM157.731 34.144V52H152.259V49.568C151.704 50.3573 150.947 50.9973 149.987 51.488C149.048 51.9573 148.003 52.192 146.851 52.192C145.486 52.192 144.28 51.8933 143.235 51.296C142.19 50.6773 141.379 49.792 140.803 48.64C140.227 47.488 139.939 46.1333 139.939 44.576V34.144H145.379V43.84C145.379 45.0347 145.688 45.9627 146.307 46.624C146.926 47.2853 147.758 47.616 148.803 47.616C149.87 47.616 150.712 47.2853 151.331 46.624C151.95 45.9627 152.259 45.0347 152.259 43.84V34.144H157.731ZM172.894 47.36V52H170.11C168.126 52 166.579 51.52 165.47 50.56C164.36 49.5787 163.806 47.9893 163.806 45.792V38.688H161.63V34.144H163.806V29.792H169.278V34.144H172.862V38.688H169.278V45.856C169.278 46.3893 169.406 46.7733 169.662 47.008C169.918 47.2427 170.344 47.36 170.942 47.36H172.894ZM179.974 32.288C179.014 32.288 178.224 32.0107 177.606 31.456C177.008 30.88 176.71 30.176 176.71 29.344C176.71 28.4907 177.008 27.7867 177.606 27.232C178.224 26.656 179.014 26.368 179.974 26.368C180.912 26.368 181.68 26.656 182.278 27.232C182.896 27.7867 183.206 28.4907 183.206 29.344C183.206 30.176 182.896 30.88 182.278 31.456C181.68 32.0107 180.912 32.288 179.974 32.288ZM182.694 34.144V52H177.222V34.144H182.694ZM196.067 52.256C194.318 52.256 192.739 51.8827 191.331 51.136C189.944 50.3893 188.846 49.3227 188.035 47.936C187.246 46.5493 186.851 44.928 186.851 43.072C186.851 41.2373 187.256 39.6267 188.067 38.24C188.878 36.832 189.987 35.7547 191.395 35.008C192.803 34.2613 194.382 33.888 196.131 33.888C197.88 33.888 199.459 34.2613 200.867 35.008C202.275 35.7547 203.384 36.832 204.195 38.24C205.006 39.6267 205.411 41.2373 205.411 43.072C205.411 44.9067 204.995 46.528 204.163 47.936C203.352 49.3227 202.232 50.3893 200.803 51.136C199.395 51.8827 197.816 52.256 196.067 52.256ZM196.067 47.52C197.112 47.52 197.998 47.136 198.723 46.368C199.47 45.6 199.843 44.5013 199.843 43.072C199.843 41.6427 199.48 40.544 198.755 39.776C198.051 39.008 197.176 38.624 196.131 38.624C195.064 38.624 194.179 39.008 193.475 39.776C192.771 40.5227 192.419 41.6213 192.419 43.072C192.419 44.5013 192.76 45.6 193.443 46.368C194.147 47.136 195.022 47.52 196.067 47.52ZM220.474 33.952C222.565 33.952 224.229 34.6347 225.466 36C226.725 37.344 227.354 39.2 227.354 41.568V52H221.914V42.304C221.914 41.1093 221.605 40.1813 220.986 39.52C220.367 38.8587 219.535 38.528 218.49 38.528C217.445 38.528 216.613 38.8587 215.994 39.52C215.375 40.1813 215.066 41.1093 215.066 42.304V52H209.594V34.144H215.066V36.512C215.621 35.7227 216.367 35.104 217.306 34.656C218.245 34.1867 219.301 33.952 220.474 33.952Z" fill="#F48C06"/>
</svg>
